<svg xmlns="http://www.w3.org/2000/svg" xmlns:xlink="http://www.w3.org/1999/xlink" width="34.596" height="34.596" viewBox="0 0 34.596 34.596">
<defs>
<linearGradient id="a" x1="0.5" x2="0.5" y2="1" gradientUnits="objectBoundingBox">
<stop offset="0" stop-color="#f5b4b8"/><stop offset="1" stop-color="#de00fc"/>
</linearGradient>
</defs>
<path class="a" d="M37.937,17.875A8.937,8.937,0,1,0,29,8.937,8.937,8.937,0,0,0,37.937,17.875Zm0-1.153A7.794,7.794,0,0,1,30.2,9.8h2.263a5.478,5.478,0,0,0,10.941,0h2.263A7.793,7.793,0,0,1,37.937,16.722Zm0-15.568a7.788,7.788,0,0,1,7.77,7.5H42.833a.577.577,0,0,0-.577.61,4.325,4.325,0,1,1-8.638-.022.577.577,0,0,0-.577-.588H30.168A7.788,7.788,0,0,1,37.937,1.153Z" transform="translate(-12.278)"/><path class="a" d="M2.2,19.645c1.3-2.784,2.458-5.085,3.2-6.529a12.233,12.233,0,0,0,2.612,5.992c1.124,1.245,2.455,2.464,3.629,3.539,3.492,3.2,3.719,3.414,2.991,5.743a11.516,11.516,0,0,0-.378,1.429c-.466,2.639.722,4.365,3.287,3.433A10.506,10.506,0,0,1,24.7,33.6a9.569,9.569,0,0,0,3.411,1c1.589,0,2.168-.6,2.373-1.106,1.393-3.377-6.8-4.519-10.452-9.041a12.472,12.472,0,0,1-1.73-3.644c-2.681-7.524-2.234-8.116-3.754-11.137-1.368-2.714-2.438-5.576-3.123-6.93A4.576,4.576,0,0,0,8.348.125C6.361-.331,3.863.581.913,2.843A2.334,2.334,0,0,0,0,4.683V19.161a1.153,1.153,0,0,0,2.2.484ZM1.153,4.683a1.173,1.173,0,0,1,.461-.923C4.278,1.72,6.458.878,8.09,1.251c1.883.433,2.486,2.328,3.319,4.295,2.632,6.215,2.422,4.592,3.53,8.527.657,2.338,1.2,4.086,2.336,7.29a12.883,12.883,0,0,0,1.859,3.817c3.469,4.3,11.047,6.022,10.282,7.878-.1.237-.609.39-1.306.39-1.714,0-3.72-1.822-7.686-1.822a9.6,9.6,0,0,0-3.276.542c-.468.173-1.1.311-1.442.021a2.518,2.518,0,0,1-.314-2.167c.282-1.569,1.245-2.946.379-4.664-.793-1.567-4.454-4.311-6.9-7.022-2.345-2.595-2.531-7.112-2.532-7.158a.577.577,0,0,0-1.083-.255c-.018.033-1.851,3.423-4.1,8.238Z" transform="translate(0 -0.005)"/><path class="a" d="M42.171,14.607a3.175,3.175,0,0,0,3.171-3.171c0-1.753-1.711-1.445-.594-5.914.173-.7-.374-1.24-1.184-.856-1.316.623-4.565,4-4.565,6.77A3.175,3.175,0,0,0,42.171,14.607Zm1.259-8.476c-.759,3.89.759,4.292.759,5.3a2.018,2.018,0,1,1-4.036,0C40.153,9.55,42.236,7.129,43.431,6.131Z" transform="translate(-16.512 -1.922)"/></svg>