<svg xmlns="http://www.w3.org/2000/svg" xmlns:xlink="http://www.w3.org/1999/xlink" width="37.985" height="34.114" viewBox="0 0 37.985 34.114"><defs><linearGradient id="a" x1="0.5" x2="0.5" y2="1" gradientUnits="objectBoundingBox"><stop offset="0" stop-color="#f5b4b8"/><stop offset="1" stop-color="#de00fc"/></linearGradient></defs><g transform="translate(0 -0.117)"><path class="a" d="M28.165,35.209A3.165,3.165,0,1,0,25,32.043,3.165,3.165,0,0,0,28.165,35.209Zm0-5.065a1.9,1.9,0,1,1-1.9,1.9A1.9,1.9,0,0,1,28.165,30.144Z" transform="translate(-9.173 -10.553)"/><path class="a" d="M4.584,25.551a38.532,38.532,0,0,0-4,3.41,1.938,1.938,0,0,0,.14,2.892,52.344,52.344,0,0,0,5.662,4.094c5.971,3.663,13.272,5.26,19.417,1.913,3.88-2.113,4.756-5.18,11.249-7.037a1.282,1.282,0,0,0,.348-2.311c-2.337-1.538-5.559-4.985-10.5-7.018a.621.621,0,0,0-.19-.08,19.5,19.5,0,0,0-8.324-1.4c-3.195-.435-3.193-2.634-3.189-4.242v-.141a.633.633,0,0,0-1.266,0c0,1.862.172,3.584,1.756,4.72q-.712.139-1.4.324c-2.748-.149-4.147-1.63-4.147-4.411a.633.633,0,1,0-1.266,0c0,2.558,1.086,4.354,3.046,5.181-.848.325-1.666.69-2.451,1.083C6.2,22,5.7,18.792,5.7,16.9a.633.633,0,0,0-1.266,0c0,1.635.374,5.191,3.433,6.491-.614.355-1.2.722-1.763,1.095-3.985-.142-4.836-3.5-4.836-6.319a.633.633,0,1,0-1.266,0c0,4.063,1.65,6.664,4.584,7.386ZM25.2,36.748c-7.212,3.929-15.095-.006-18.149-1.88a51.012,51.012,0,0,1-5.528-4,.669.669,0,0,1-.05-1,36.294,36.294,0,0,1,7.056-5.394,10.147,10.147,0,1,0,19.319-1.166,28.358,28.358,0,0,1,4.463,2.849,11.567,11.567,0,0,0-.924,5.814C29.185,33.4,27.389,35.553,25.2,36.748ZM36.7,29.605a20.628,20.628,0,0,0-4.121,1.652,10.288,10.288,0,0,1,.764-4.292C34.719,28.063,35.7,28.9,36.7,29.605ZM26.1,22.524a8.876,8.876,0,1,1-15.985,1.1c.222-.11.439-.224.666-.33a2.529,2.529,0,1,0,4.607-1.576,18.093,18.093,0,0,1,10.712.806Zm-12.138-.434a1.259,1.259,0,1,1-1.844.633C12.713,22.484,13.331,22.281,13.958,22.091Z" transform="translate(0 -5.461)"/><path class="a" d="M2.032,9.141l7.56-1.919a5.079,5.079,0,0,1,2.434-.015C35.615,12.9,34.17,12.589,34.7,12.589a3.141,3.141,0,0,0,3.078-2.548l.119-.616a3.138,3.138,0,0,0-2.461-3.672L12.818.264a8.154,8.154,0,0,0-6.584,1.6L.648,6.263A1.63,1.63,0,0,0,2.032,9.141Zm-.61-1.876,5.593-4.4A6.876,6.876,0,0,1,12.549,1.5l22.621,5.49a1.862,1.862,0,0,1,1.2.789,2.35,2.35,0,0,1,.17,2.022,1.875,1.875,0,0,1-2.166,1.492C10.383,5.51,11.906,5.8,10.838,5.8s-.881.022-9.116,2.113a.363.363,0,0,1-.3-.653Z" transform="translate(-0.001 0)"/></g></svg>