<svg xmlns="http://www.w3.org/2000/svg" xmlns:xlink="http://www.w3.org/1999/xlink" width="33.976" height="33.978" viewBox="0 0 33.976 33.978"><defs><linearGradient id="a" x1="0.5" x2="0.5" y2="1" gradientUnits="objectBoundingBox"><stop offset="0" stop-color="#f5b4b8"/><stop offset="1" stop-color="#de00fc"/></linearGradient></defs><g transform="translate(-0.026 -0.004)"><path class="a" d="M.283,35.553c.793.736,1.448,2.643,7.4,3.406a28.491,28.491,0,0,0,3.9.217c6.22,0,6.4.057,8.529-.217,5.072-.651,6.33-2.153,7.081-3.055a3.955,3.955,0,0,1,.321-.357.566.566,0,0,0-.269-1.038C22.292,33.4,29.809,20.4,23.553,15.222a.566.566,0,1,0-.723.872c5.528,4.58-1.606,16.885,3.356,19.247-.67.779-1.9,1.94-6.218,2.493-.59.076-1.2.131-1.829.17V33.979a10.635,10.635,0,0,0,2.5-4.475c.906-.24,2.6-1.071,2.6-3.935,0-1.325-.306-2.124-.936-2.442a1.37,1.37,0,0,0-1-.072c0-.361-.012-.719-.038-1.058a.566.566,0,0,0-.163-.356c-2.185-2.2-3.126-2.277-7.205-2.277a4.005,4.005,0,0,1-4.1-2.474.566.566,0,0,0-.872-.24C7.3,17.9,6.508,19.994,6.486,23.058a1.371,1.371,0,0,0-1,.072c-.633.318-.939,1.117-.939,2.442,0,2.855,1.683,3.69,2.591,3.931A10.557,10.557,0,0,0,9.641,34v4c-.628-.037-1.232-.092-1.817-.17C3.5,37.277,2.273,36.117,1.6,35.338c3.751-1.783.667-8.994,1.214-14.694.38-3.947,2.857-6.068,6.953-5.988a.635.635,0,0,0,.283-.069,13.861,13.861,0,0,1,7.68-1.378.567.567,0,0,0,.12-1.127,15.133,15.133,0,0,0-8.208,1.439c-4.6-.036-7.521,2.51-7.955,7.018C1.12,26.487,4.208,33.666.563,34.505a.572.572,0,0,0-.28,1.048ZM21.79,24.141c.013.006.314.17.314,1.431a2.739,2.739,0,0,1-1.16,2.6,23.788,23.788,0,0,0,.347-3.886C21.551,24.135,21.727,24.109,21.79,24.141ZM5.676,25.572c0-1.258.3-1.425.314-1.431.062-.031.238-.006.5.143a24.123,24.123,0,0,0,.34,3.883,2.741,2.741,0,0,1-1.153-2.6Zm3.155,5.246C7.816,28.651,7.612,26.3,7.612,23.2c0-2.387.486-4.091,1.483-5.179a5.211,5.211,0,0,0,4.8,2.474c3.92,0,4.5.059,6.252,1.8.018.293.026.6.026.906,0,3.089-.206,5.438-1.233,7.616-1.19,2.533-2.886,3.817-5.045,3.817-2.176,0-3.878-1.281-5.059-3.814Zm1.944,4.08a5.97,5.97,0,0,0,6.231-.01v3.159c-.262.006-5.966.006-6.231,0Z" transform="translate(0 -5.2)"/><path class="a" d="M38.864,4.495a7.144,7.144,0,0,0,.789,1.94l-1.093.4a1.688,1.688,0,0,0-2.6.013L29.86,4.6a.567.567,0,0,0-.4,1.063c6.35,2.348,6.107,2.216,6.1,2.273s.24-.073-6.1,2.273a.566.566,0,0,0,.2,1.1c.146,0-.355.17,6.295-2.292a1.684,1.684,0,0,0,2.6.013l1.1.405c-.222.283-.2.3-.789,1.94A2.693,2.693,0,0,0,40.44,14.8c2.5.927,2.723,1.066,3.344,1.066A2.643,2.643,0,0,0,46.266,14.1l.178-.5a2.693,2.693,0,0,0-1.577-3.427l-1.4-.519a.536.536,0,0,0-.1-.061c-4.763-1.761-4.4-1.6-4.4-1.661s-.364.1,4.4-1.661a.566.566,0,0,0,.1-.061l1.4-.52a2.693,2.693,0,0,0,1.577-3.427l-.178-.5a2.629,2.629,0,0,0-3.389-1.6l-2.436.9a2.693,2.693,0,0,0-1.577,3.428Zm-1.6,4a.566.566,0,1,1,.566-.566A.566.566,0,0,1,37.266,8.5Zm8.111,4.721-.178.5a1.5,1.5,0,0,1-1.926.922l-2.436-.9a1.557,1.557,0,0,1-.9-1.983l.532-1.488a.473.473,0,0,1,.441-.319,29.5,29.5,0,0,1,3.569,1.292A1.556,1.556,0,0,1,45.377,13.22ZM43.271,1.227a1.467,1.467,0,0,1,1.138.046,1.95,1.95,0,0,1,.969,1.371,1.556,1.556,0,0,1-.906,1.983L41.062,5.893a.467.467,0,0,1-.6-.291l-.532-1.488a1.556,1.556,0,0,1,.9-1.983Z" transform="translate(-12.602 0)"/></g></svg>