<svg xmlns="http://www.w3.org/2000/svg" xmlns:xlink="http://www.w3.org/1999/xlink" width="31.954" height="33.351" viewBox="0 0 31.954 33.351"><defs><linearGradient id="a" x1="0.5" x2="0.5" y2="1" gradientUnits="objectBoundingBox"><stop offset="0" stop-color="#f5b4b8"/><stop offset="1" stop-color="#de00fc"/></linearGradient></defs><g transform="translate(-0.257 0)"><path class="a" d="M5.306,23.046,3.931,19.838a1.918,1.918,0,1,0-3.51,1.55c2.533,5.572,2.656,6.176,3.78,7.3l4.5,4.5a.556.556,0,0,0,.393.163h6.026a.556.556,0,0,0,.556-.556,14.011,14.011,0,0,0-.184-3.371,7.834,7.834,0,0,0,1.48,0,13.39,13.39,0,0,0-.184,3.371.556.556,0,0,0,.556.556h6.028a.556.556,0,0,0,.393-.163l4.5-4.5c1.122-1.122,1.211-1.651,3.78-7.3a1.918,1.918,0,0,0-3.51-1.55l-1.377,3.209a2.823,2.823,0,0,0-2.213-.435,16.675,16.675,0,0,0,.654-1.934c1.1-.222,3.776-1.191,3.776-5.392,0-1.423-.248-3.178-1.664-3.371A15.111,15.111,0,0,0,29.962,1.45L29.74.435A.556.556,0,0,0,29.195,0H3.272a.556.556,0,0,0-.542.435L2.5,1.491A15.089,15.089,0,0,0,4.754,11.92c-1.4.209-1.645,1.958-1.645,3.368,0,4.2,2.675,5.169,3.78,5.392a16.811,16.811,0,0,0,.656,1.94,2.817,2.817,0,0,0-2.24.427Zm9.26,9.192H9.324L4.988,27.9c-.908-.905-.907-1.146-3.555-6.972a.807.807,0,1,1,1.476-.651C5.161,25.53,4.285,24.25,8.7,28.669a.556.556,0,1,0,.786-.786c-3.045-3.044-3.189-3.129-3.653-3.84a1.685,1.685,0,0,1,2.148,0,13.233,13.233,0,0,0,3.95,2.5,4.6,4.6,0,0,1,2.634,4.474ZM15.1,28.25a4.969,4.969,0,0,0-2.814-2.765,10.924,10.924,0,0,1-3-1.823C7.372,20.278,7.127,16.2,7.124,12.314a27.841,27.841,0,0,1,9.11-9.784,28.053,28.053,0,0,1,9.13,9.818c-.009,3.946-.245,7.837-2.13,11.276a11.047,11.047,0,0,1-3.05,1.86,4.974,4.974,0,0,0-2.816,2.769,7.448,7.448,0,0,1-2.27,0Zm11.535-4.21c-.462.708-.6.783-3.653,3.84a.556.556,0,0,0,.786.786c4.373-4.373,3.539-3.133,5.792-8.39a.807.807,0,1,1,1.476.651c-2.609,5.74-2.625,6.045-3.552,6.972l-4.339,4.339H17.9V31.015a5.346,5.346,0,0,1,1.106-3.341c1.3-1.63,1.719-.471,5.478-3.635a1.685,1.685,0,0,1,2.148,0Zm1.633-8.755c0,2.8-1.357,3.8-2.366,4.159a31.96,31.96,0,0,0,.56-6c.514-.365.97-.517,1.223-.4.136.066.583.422.583,2.239ZM28.75,1.112A13.791,13.791,0,0,1,26.471,11.77c-.053-4.152-1.149-7-3.354-8.682a.556.556,0,1,0-.675.883c1.607,1.229,2.528,3.24,2.815,6.086a28.358,28.358,0,0,0-9.263-8.946Zm-25.032,0H11.3A14.474,14.474,0,0,0,8.019,4.1a.556.556,0,1,0,.868.695,13.443,13.443,0,0,1,4.584-3.637,17.458,17.458,0,0,1,1.656.753,28.9,28.9,0,0,0-9.044,9.985A13.755,13.755,0,0,1,3.718,1.112Zm.5,14.174c0-1.819.445-2.176.584-2.242.248-.12.713.035,1.223.4a31.968,31.968,0,0,0,.561,6.006C5.58,19.088,4.221,18.087,4.221,15.285Z" transform="translate(0 0)"/><path class="a" d="M16.8,20.64a2.431,2.431,0,0,1,1.866-.132l2.156.719a.556.556,0,0,0,.351-1.056l-2.156-.717a3.536,3.536,0,0,0-2.715.193.556.556,0,1,0,.5.994Z" transform="translate(-6.989 -8.559)"/><path class="a" d="M32.558,21.254a14.307,14.307,0,0,0,2.334-.747,2.426,2.426,0,0,1,1.866.132.556.556,0,1,0,.5-.994,3.538,3.538,0,0,0-2.715-.193l-2.156.719a.556.556,0,0,0,.173,1.083Z" transform="translate(-14.101 -8.558)"/><path class="a" d="M20.084,25.934a.556.556,0,0,0-.7-.348A4.03,4.03,0,0,1,16,25.112a.556.556,0,0,0-.723.05,1.382,1.382,0,0,1-.723.395.556.556,0,0,0,0,1.112,2.072,2.072,0,0,0,1.144-.421c.084.05.167.094.252.137a.984.984,0,0,1-.285.283.556.556,0,0,0-.556.556c0,.683,1.027.945,1.93-.455a5.457,5.457,0,0,0,2.7-.131A.556.556,0,0,0,20.084,25.934Z" transform="translate(-6.104 -11.105)"/><path class="a" d="M37.113,25.111a4.025,4.025,0,0,1-3.378.474.556.556,0,0,0-.359,1.052,5.447,5.447,0,0,0,2.7.131c.282.439.766,1.011,1.375,1.011a.565.565,0,0,0,.568-.556.544.544,0,0,0-.544-.556.916.916,0,0,1-.307-.287c.083-.043.167-.086.25-.136a2.072,2.072,0,0,0,1.144.424.556.556,0,1,0,0-1.112,1.38,1.38,0,0,1-.719-.393A.556.556,0,0,0,37.113,25.111Z" transform="translate(-14.543 -11.104)"/><path class="a" d="M25.247,34.018a3.553,3.553,0,0,0,3.952,0,.556.556,0,1,0-.617-.925,2.446,2.446,0,0,1-2.718,0,.556.556,0,1,0-.617.925Z" transform="translate(-10.99 -14.657)"/><path class="a" d="M29.67,39.556a.675.675,0,0,0-.723-.667c-.461,0-1.825-.889-2.612-.889s-2.143.889-2.61.889a.675.675,0,0,0-.725.667c0,.784,1.57,1.779,3.335,1.779S29.67,40.34,29.67,39.556Zm-3.335-.445a10.442,10.442,0,0,1,1.737.683,3.731,3.731,0,0,1-3.474,0A10.331,10.331,0,0,1,26.335,39.112Z" transform="translate(-10.102 -16.878)"/><path class="a" d="M28.667,46H27.556a.556.556,0,0,0,0,1.112h1.112a.556.556,0,1,0,0-1.112Z" transform="translate(-11.878 -20.432)"/><circle class="a" cx="0.556" cy="0.556" r="0.556" transform="translate(6.228 5.558)"/></g></svg>