<svg xmlns="http://www.w3.org/2000/svg" xmlns:xlink="http://www.w3.org/1999/xlink" width="33.262" height="33.819" viewBox="0 0 33.262 33.819"><defs><linearGradient id="a" x1="0.5" x2="0.5" y2="1" gradientUnits="objectBoundingBox"><stop offset="0" stop-color="#f5b4b8"/><stop offset="1" stop-color="#de00fc"/></linearGradient></defs><g transform="translate(-0.987 0)"><path class="a" d="M1.778,15.5c0,4.1,2.5,5.165,3.689,5.439A16.675,16.675,0,0,0,6.82,24.265a2.96,2.96,0,0,1-2.443,1.1.564.564,0,1,0,0,1.127c3.326,0,3.382,3.785,3.382,3.946v.008a.564.564,0,0,0,1.127-.008,5.313,5.313,0,0,1,.745-2.579,8.3,8.3,0,0,0,5.5,2.015,8.664,8.664,0,0,0,7.285-3.99,3.759,3.759,0,0,0,1.611-.1,3.664,3.664,0,0,0,6.825-2.129,2.528,2.528,0,0,0,1.589-4.687,1.967,1.967,0,1,0-3.326.659,2.486,2.486,0,0,0-.446.976,3.645,3.645,0,0,0-1.465-.309c-.8,0-.558.2-.737-.142.978-.733,1.949-2.1,1.949-4.649,0-1.447-.256-3.22-1.684-3.423A15.324,15.324,0,0,0,29.008,1.47L28.782.441A.564.564,0,0,0,28.229,0H1.942a.564.564,0,0,0-.55.441L1.155,1.512A15.3,15.3,0,0,0,3.441,12.081c-1.411.222-1.663,1.986-1.663,3.42Zm1.127,0c0-1.8.436-2.185.569-2.261.277-.157.785.067,1.026.232a33.931,33.931,0,0,0,.637,6.187C4.138,19.244,2.905,18.19,2.905,15.5ZM8.322,27.885a4.305,4.305,0,0,0-1.706-1.958A4.456,4.456,0,0,0,8.322,23.97a4.305,4.305,0,0,0,1.706,1.958,4.441,4.441,0,0,0-1.706,1.958Zm6.809.861a7.2,7.2,0,0,1-4.723-1.705,3.121,3.121,0,0,1,1.86-.55.564.564,0,0,0,0-1.127c-3.325,0-3.382-3.785-3.382-3.946V21.41a.564.564,0,1,0-1.127.008,5.679,5.679,0,0,1-.29,1.635A24.037,24.037,0,0,1,5.612,12.907,31.385,31.385,0,0,1,10.6,6.17a8.461,8.461,0,0,0,4.532,1.174,25.231,25.231,0,0,1,5.843.372,30.112,30.112,0,0,1,3.677,5.391,34.583,34.583,0,0,1-.4,5.143,3.941,3.941,0,0,0-2.983,7.283,7.507,7.507,0,0,1-6.132,3.213ZM11.436,5.355a22.193,22.193,0,0,1,3.65-2.788,23.345,23.345,0,0,1,4.662,3.793C16.146,5.971,13.87,6.7,11.436,5.355Zm8.722,16.628A2.818,2.818,0,1,1,22.977,24.8,2.818,2.818,0,0,1,20.158,21.982Zm10.427-4.509a.845.845,0,1,1-.845.845A.845.845,0,0,1,30.586,17.473Zm-.845,3.664a1.382,1.382,0,0,1,.347-.917,1.9,1.9,0,0,0,1.691-.338A1.4,1.4,0,1,1,30.5,22.374a3.684,3.684,0,0,0-.737-1.032,1.329,1.329,0,0,1-.027-.206Zm0,2.818a2.536,2.536,0,0,1-4.67,1.365,3.924,3.924,0,0,0,1.81-3.875,2.53,2.53,0,0,1,2.859,2.51ZM27.288,15.5A4.4,4.4,0,0,1,25.8,19.235a3.94,3.94,0,0,0-.507-.44,33.469,33.469,0,0,0,.475-5.368c.27-.152.69-.338.951-.189C26.853,13.314,27.288,13.7,27.288,15.5Zm.49-14.373a13.978,13.978,0,0,1-2.4,10.935A29.323,29.323,0,0,0,14.843,1.127Zm-25.384,0h7.688a14.678,14.678,0,0,0-3.326,3.03.564.564,0,0,0,.88.7,13.632,13.632,0,0,1,4.648-3.688,17.7,17.7,0,0,1,1.679.763A29.31,29.31,0,0,0,4.793,12.062a13.949,13.949,0,0,1-2.4-10.935Z" transform="translate(0 0)"/><path class="a" d="M13.813,20.659a2.465,2.465,0,0,1,1.893-.134l2.186.729a.564.564,0,0,0,.356-1.071l-2.186-.727a3.586,3.586,0,0,0-2.753.2.564.564,0,1,0,.5,1.008Z" transform="translate(-5.239 -8.408)"/><path class="a" d="M29.565,21.282a14.507,14.507,0,0,0,2.367-.758,2.46,2.46,0,0,1,1.893.134.564.564,0,1,0,.5-1.008,3.588,3.588,0,0,0-2.753-.2l-2.186.729a.564.564,0,0,0,.175,1.1Z" transform="translate(-12.225 -8.408)"/><path class="a" d="M17.169,25.947a.564.564,0,0,0-.714-.353,4.087,4.087,0,0,1-3.426-.481.564.564,0,0,0-.733.051,1.4,1.4,0,0,1-.733.4.564.564,0,1,0,0,1.127,2.1,2.1,0,0,0,1.161-.427c.085.051.169.1.256.139a1,1,0,0,1-.289.287.564.564,0,0,0-.564.564c0,.693,1.041.958,1.958-.462a5.534,5.534,0,0,0,2.734-.132.564.564,0,0,0,.35-.714Z" transform="translate(-4.369 -10.91)"/><path class="a" d="M34.175,25.113a4.084,4.084,0,0,1-3.425.481.564.564,0,0,0-.365,1.066,5.524,5.524,0,0,0,2.734.132c.286.445.777,1.025,1.394,1.025a.573.573,0,0,0,.576-.564.552.552,0,0,0-.552-.564.929.929,0,0,1-.311-.291c.085-.043.169-.087.254-.138a2.1,2.1,0,0,0,1.161.429.564.564,0,0,0,0-1.127,1.4,1.4,0,0,1-.729-.4.564.564,0,0,0-.737-.052Z" transform="translate(-12.664 -10.909)"/><path class="a" d="M22.251,34.032a3.6,3.6,0,0,0,4.008,0,.564.564,0,0,0-.626-.938,2.48,2.48,0,0,1-2.756,0,.564.564,0,0,0-.626.938Z" transform="translate(-9.169 -14.4)"/><path class="a" d="M26.031,38.9a4.35,4.35,0,0,1-1.09-.4c-1.465-.667-1.644-.667-3.112,0a4.349,4.349,0,0,1-1.09.4.685.685,0,0,0-.738.676c0,.8,1.592,1.8,3.382,1.8s3.382-1.009,3.382-1.8a.684.684,0,0,0-.733-.676Zm-4.408.918a10.477,10.477,0,0,1,1.759-.692,10.589,10.589,0,0,1,1.761.692,3.784,3.784,0,0,1-3.523,0Z" transform="translate(-8.296 -16.583)"/><path class="a" d="M25.691,46H24.564a.564.564,0,0,0,0,1.127h1.127a.564.564,0,0,0,0-1.127Z" transform="translate(-10.042 -20.072)"/><circle class="a" cx="0.564" cy="0.564" r="0.564" transform="translate(4.94 5.636)"/><path class="a" d="M55.636,50.818a2.818,2.818,0,1,0-2.818,2.818A2.818,2.818,0,0,0,55.636,50.818Zm-4.509,0a1.691,1.691,0,1,1,1.691,1.691A1.691,1.691,0,0,1,51.127,50.818Z" transform="translate(-21.387 -20.945)"/><path class="a" d="M44.382,51.691a1.691,1.691,0,1,0-1.691,1.691A1.691,1.691,0,0,0,44.382,51.691Zm-2.255,0a.564.564,0,1,1,.564.564A.564.564,0,0,1,42.127,51.691Z" transform="translate(-17.46 -21.818)"/><path class="a" d="M39.254,36A2.191,2.191,0,0,0,37,38.254a.564.564,0,1,0,1.127,0,1.062,1.062,0,0,1,1.131-1.127.564.564,0,1,0,0-1.127Z" transform="translate(-15.714 -15.708)"/><path class="a" d="M5.564,50A.564.564,0,0,0,5,50.564v1.127a.564.564,0,1,0,1.127,0V50.564A.564.564,0,0,0,5.564,50Z" transform="translate(-1.751 -21.818)"/><path class="a" d="M5,57.691a.564.564,0,1,0,1.127,0V56.564a.564.564,0,1,0-1.127,0Z" transform="translate(-1.751 -24.436)"/><path class="a" d="M7.564,55.127H8.691a.564.564,0,0,0,0-1.127H7.564a.564.564,0,0,0,0,1.127Z" transform="translate(-2.624 -23.563)"/><path class="a" d="M2.691,54H1.564a.564.564,0,0,0,0,1.127H2.691a.564.564,0,0,0,0-1.127Z" transform="translate(-0.006 -23.563)"/></g></svg>