<svg xmlns="http://www.w3.org/2000/svg" xmlns:xlink="http://www.w3.org/1999/xlink" width="25.081" height="34.201" viewBox="0 0 25.081 34.201"><defs><linearGradient id="a" x1="0.5" x2="0.5" y2="1" gradientUnits="objectBoundingBox"><stop offset="0" stop-color="#f5b4b8"/><stop offset="1" stop-color="#de00fc"/></linearGradient></defs><g transform="translate(0)"><path class="a" d="M24.934,6.171a.57.57,0,0,0-.716.887c.147.119.3.24.466.362a.57.57,0,1,0,.684-.912Q25.138,6.337,24.934,6.171Z" transform="translate(-10.326 -2.602)"/><path class="a" d="M35.941,10.966a9.555,9.555,0,0,1-1.108-.119.57.57,0,0,0-.185,1.125,10.716,10.716,0,0,0,1.241.133.571.571,0,0,0,.057-1.14Z" transform="translate(-14.698 -4.662)"/><path class="a" d="M38.811,39.869a.57.57,0,0,0-.781.2c-.191.321-.4.641-.62.952a.57.57,0,1,0,.931.656c.237-.335.462-.684.669-1.026A.57.57,0,0,0,38.811,39.869Z" transform="translate(-16.034 -17.109)"/><path class="a" d="M29.725,10.443a.57.57,0,1,0,.423-1.059c-.342-.136-.684-.294-1.026-.468A.57.57,0,1,0,28.6,9.93C28.973,10.121,29.351,10.293,29.725,10.443Z" transform="translate(-12.165 -3.807)"/><path class="a" d="M34.215,44.908q-.393.418-.812.812a.57.57,0,1,0,.784.828q.442-.417.858-.859a.57.57,0,1,0-.831-.781Z" transform="translate(-14.286 -19.232)"/><path class="a" d="M28.963,50.706c.211,0,.289-.041,1.3-.816a.57.57,0,1,0-.694-.9c-.306.235-.618.462-.934.684a.57.57,0,0,0,.328,1.036Z" transform="translate(-12.209 -21.008)"/><path class="a" d="M40.623,36.315a.57.57,0,0,0,.735-.331c.146-.384.278-.788.385-1.166a.57.57,0,1,0-1.1-.315c-.129.447-.236.763-.355,1.076a.57.57,0,0,0,.33.736Z" transform="translate(-17.309 -14.654)"/><path class="a" d="M42.467,27.981a.562.562,0,0,0-.6.535c-.023.381-.057.762-.11,1.133a.57.57,0,0,0,1.13.153c.054-.4.094-.81.118-1.218a.57.57,0,0,0-.535-.6Z" transform="translate(-17.951 -12.031)"/><path class="a" d="M43.14,22.333a.57.57,0,0,0-1.14,0v1.181a.57.57,0,1,0,1.14,0Z" transform="translate(-18.059 -9.358)"/><path class="a" d="M43.14,16.114a.57.57,0,1,0-1.14,0V17.3a.57.57,0,1,0,1.14,0Z" transform="translate(-18.059 -6.684)"/><path class="a" d="M41.127,10.647q-.164.037-.325.068a.57.57,0,1,0,.211,1.12c.1-.019.195-.038.282-.057a.57.57,0,0,0,1.118-.206,1.072,1.072,0,0,0-1.287-.925Z" transform="translate(-17.34 -4.568)"/><path class="a" d="M24.774,52.408l-.491.285a.57.57,0,1,0,.57.987l.5-.288a.57.57,0,0,0-.575-.984Z" transform="translate(-10.317 -22.503)"/><path class="a" d="M10.473,6.167A10.776,10.776,0,0,1,1.3,8.676,1.068,1.068,0,0,0,0,9.724v8.431c0,6.39,3.279,10.918,8.623,14.464.368.243,1.015.633,1.922,1.158a.57.57,0,0,0,.57-.987c-.888-.513-1.515-.89-1.863-1.121C4.3,28.384,1.128,24.19,1.128,18.154V9.806a11.878,11.878,0,0,0,10.06-2.751.57.57,0,0,0-.715-.888Z" transform="translate(0 -2.599)"/><path class="a" d="M21.57,50a.57.57,0,0,0-.57.57v4.56a.57.57,0,0,0,1.14,0V50.57A.57.57,0,0,0,21.57,50Z" transform="translate(-9.03 -21.499)"/><path class="a" d="M7.57,17.343a.57.57,0,0,0-.57.57v3.42a3.42,3.42,0,1,0,6.84,0v-3.42a.57.57,0,1,0-1.14,0v3.42a2.28,2.28,0,1,1-4.56,0v-3.42A.57.57,0,0,0,7.57,17.343Z" transform="translate(-3.01 -7.457)"/><path class="a" d="M25.333,17.383a.57.57,0,0,0-.285.755l2.85,6.27a.57.57,0,0,0,1.037,0l2.85-6.27a.57.57,0,1,0-1.037-.471L28.417,22.8l-2.331-5.13A.57.57,0,0,0,25.333,17.383Z" transform="translate(-10.748 -7.446)"/><path class="a" d="M17,37.193a2.85,2.85,0,1,0,2.85-2.85A2.85,2.85,0,0,0,17,37.193Zm2.85-1.71a1.71,1.71,0,1,1-1.71,1.71A1.71,1.71,0,0,1,19.85,35.483Z" transform="translate(-7.31 -14.767)"/><path class="a" d="M13.57,39.483h.57a.57.57,0,0,0,0-1.14h-.57a.57.57,0,0,0,0,1.14Z" transform="translate(-5.59 -16.487)"/><path class="a" d="M28,38.913a.57.57,0,0,0,.57.57h.57a.57.57,0,1,0,0-1.14h-.57A.57.57,0,0,0,28,38.913Z" transform="translate(-12.04 -16.487)"/><path class="a" d="M21,31.483a.57.57,0,1,0,1.14,0v-.57a.57.57,0,0,0-1.14,0Z" transform="translate(-9.03 -13.047)"/><path class="a" d="M22.14,45.913a.57.57,0,1,0-1.14,0v.57a.57.57,0,1,0,1.14,0Z" transform="translate(-9.03 -19.497)"/><path class="a" d="M15.51,32.853a.57.57,0,0,0,0,.807l.4.4a.57.57,0,0,0,.806-.806l-.4-.4A.57.57,0,0,0,15.51,32.853Z" transform="translate(-6.597 -14.055)"/><path class="a" d="M26.928,44.841a.57.57,0,0,0,.4-.973l-.4-.4a.57.57,0,0,0-.806.806c.368.368.5.57.806.57Z" transform="translate(-11.163 -18.621)"/><path class="a" d="M26.53,32.853l-.4.4a.57.57,0,0,0,.806.805l.4-.4a.57.57,0,0,0-.806-.807Z" transform="translate(-11.168 -14.054)"/><path class="a" d="M15.913,44.841c.282,0,.364-.128.806-.57a.57.57,0,0,0-.806-.806l-.4.4a.57.57,0,0,0,.4.973Z" transform="translate(-6.597 -18.621)"/><path class="a" d="M21.57,16.53a.57.57,0,0,0,.57-.57V.57A.57.57,0,1,0,21,.57V15.96A.57.57,0,0,0,21.57,16.53Z" transform="translate(-9.03)"/></g></svg>