<svg xmlns="http://www.w3.org/2000/svg" xmlns:xlink="http://www.w3.org/1999/xlink" width="33.591" height="33.584" viewBox="0 0 33.591 33.584"><defs><linearGradient id="a" x1="0.5" x2="0.5" y2="1" gradientUnits="objectBoundingBox"><stop offset="0" stop-color="#f5b4b8"/><stop offset="1" stop-color="#de00fc"/></linearGradient></defs><g transform="translate(-0.984)"><path class="a" d="M1.085,27.471,3.069,38.15a2.715,2.715,0,0,0,2.584,2.037h6.814a2.71,2.71,0,0,0,2.621-2.195l1.638-10.6a2.772,2.772,0,0,0-2.614-3.44h-.805V19.478a4.478,4.478,0,1,0-8.955,0v4.478H3.68a2.775,2.775,0,0,0-2.594,3.516Zm4.385-7.994a3.358,3.358,0,0,1,6.717,0v4.478H10.508V22.836a.56.56,0,0,0-1.119,0v1.119H8.269V22.836a.56.56,0,0,0-1.119,0v1.119H5.471Zm-1.791,5.6H14.112a1.657,1.657,0,0,1,1.515,2.112l-1.638,10.6a1.587,1.587,0,0,1-1.522,1.284h-.84V37.948a.56.56,0,0,0-1.119,0v1.119H9.389V37.948a.56.56,0,0,0-1.119,0v1.119H7.15V37.948a.56.56,0,0,0-1.119,0v1.119H5.653A1.582,1.582,0,0,1,4.16,37.9L2.176,27.222a1.659,1.659,0,0,1,1.5-2.148Z" transform="translate(0 -6.604)"/><path class="a" d="M49.955,19.31V17.239A2.239,2.239,0,0,0,47.717,15H45.478a2.239,2.239,0,0,0-2.239,2.239V19.31A3.9,3.9,0,0,0,41,22.836V38.508a1.679,1.679,0,0,0,1.679,1.679h7.836a1.679,1.679,0,0,0,1.679-1.679V22.836A3.9,3.9,0,0,0,49.955,19.31Zm-5.6-2.071a1.119,1.119,0,0,1,1.119-1.119h2.239a1.119,1.119,0,0,1,1.119,1.119v8.4a2.239,2.239,0,1,1-4.478,0Zm6.717,21.269a.56.56,0,0,1-.56.56H42.679a.56.56,0,0,1-.56-.56V22.836A2.793,2.793,0,0,1,43.239,20.6v5.037a3.358,3.358,0,1,0,6.717,0V20.6a2.793,2.793,0,0,1,1.119,2.239Z" transform="translate(-17.618 -6.604)"/><path class="a" d="M49.56,20.679a.56.56,0,0,0,.56-.56v-.56a.56.56,0,1,0-1.119,0v.56A.56.56,0,0,0,49.56,20.679Z" transform="translate(-21.141 -8.365)"/><path class="a" d="M49.56,30.157a.56.56,0,0,0,.56-.56V24.56a.56.56,0,1,0-1.119,0V29.6A.56.56,0,0,0,49.56,30.157Z" transform="translate(-21.141 -10.567)"/><path class="a" d="M51.037,44H46.56a.56.56,0,1,0,0,1.119h4.478a.56.56,0,1,0,0-1.119Z" transform="translate(-19.82 -19.373)"/><path class="a" d="M51.037,49H46.56a.56.56,0,1,0,0,1.119h4.478a.56.56,0,1,0,0-1.119Z" transform="translate(-19.82 -21.574)"/><path class="a" d="M31.358,0A3.362,3.362,0,0,0,28,3.358v8.955a1.679,1.679,0,0,0,1.679,1.679V26.041a1.119,1.119,0,0,0-.612.9c-.158,1.808-.313,3.52-.466,5.093a1.126,1.126,0,0,0,.711,1.155,5.436,5.436,0,0,0,4.091,0,1.126,1.126,0,0,0,.711-1.155c-.153-1.572-.308-3.284-.466-5.093a1.119,1.119,0,0,0-.612-.9V13.993a1.679,1.679,0,0,0,1.679-1.679V3.358A3.362,3.362,0,0,0,31.358,0ZM29.715,32.139c.153-1.574.309-3.288.472-5.112a4.26,4.26,0,0,1,2.346.007c.158,1.812.314,3.526.448,5.111a4.323,4.323,0,0,1-3.266-.007Zm2.2-6.353a5.423,5.423,0,0,0-1.119,0V13.993h1.119Zm1.119-12.912H29.679a.56.56,0,0,1-.56-.56V3.358a2.239,2.239,0,1,1,4.478,0v.56H32.478a.56.56,0,0,0,0,1.119H33.6V6.157H32.478a.56.56,0,0,0,0,1.119H33.6V8.4H32.478a.56.56,0,0,0,0,1.119H33.6v1.119H32.478a.56.56,0,0,0,0,1.119H33.6v.56A.56.56,0,0,1,33.037,12.873Z" transform="translate(-11.895)"/><path class="a" d="M11.8,44.423a3.358,3.358,0,0,0,3.914-3.313,5.794,5.794,0,0,0-2.751-4.765,1.116,1.116,0,0,0-1.222,0,5.9,5.9,0,0,0-2.725,4.313A3.422,3.422,0,0,0,11.8,44.423Zm.551-7.142a4.689,4.689,0,0,1,2.244,3.828,2.246,2.246,0,1,1-4.463-.355A4.81,4.81,0,0,1,12.35,37.281Z" transform="translate(-3.525 -15.923)"/></g></svg>