<svg xmlns="http://www.w3.org/2000/svg" xmlns:xlink="http://www.w3.org/1999/xlink" width="33.608" height="33.609" viewBox="0 0 33.608 33.609"><defs><linearGradient id="a" x1="0.5" x2="0.5" y2="1" gradientUnits="objectBoundingBox"><stop offset="0" stop-color="#f5b4b8"/><stop offset="1" stop-color="#de00fc"/></linearGradient></defs><g transform="translate(0 -0.997)"><path class="a" d="M24.271,17.876c.56-.631-1.1,1.32,5.847-7a.56.56,0,0,0-.1-.814c-3.8-2.717-3.264-4.026-6.651-7.409-2.535-2.535-5.624-1.61-7.24-.833a2.3,2.3,0,0,1-1.995,0c-1.617-.777-4.706-1.7-7.241.833-3.4,3.4-2.825,4.675-6.651,7.409a.56.56,0,0,0-.213.61c.041.144-.28-.272,5.521,6.7A2.951,2.951,0,0,1,2.8,18.923a.56.56,0,1,0,0,1.12c3.3,0,3.361,3.762,3.361,3.921v.008a.56.56,0,0,0,1.12-.008c0-.132.042-2.712,1.912-3.612a11.905,11.905,0,0,0,2.527.946,2.7,2.7,0,0,0-.518,1.545v6.722c0,2.827,4.921,5.041,11.2,5.041s11.2-2.214,11.2-5.041V22.844c0-2.54-3.977-4.579-9.337-4.968Zm8.217,4.968a1.914,1.914,0,0,1-.624,1.318c-.52-2.211-4.41-3.822-9.458-3.822s-8.938,1.611-9.458,3.822a1.914,1.914,0,0,1-.624-1.318,2.33,2.33,0,0,1,.887-1.568c1.707-1.439,5.6-2.353,9.2-2.353,4.769,0,10.082,1.61,10.082,3.921ZM22.405,26.765a18.6,18.6,0,0,1-8.352-1.783A1.168,1.168,0,0,1,14,24.67c0-1.518,3.45-3.21,8.4-3.21s8.4,1.692,8.4,3.21a1.168,1.168,0,0,1-.05.312A18.6,18.6,0,0,1,22.405,26.765ZM7.678,3.449c1.944-1.944,4.313-1.409,5.964-.616a3.4,3.4,0,0,0,2.965,0c1.648-.792,4.02-1.33,5.963.616,2.836,2.837,2.863,4.28,5.421,6.463a11.58,11.58,0,0,1-5.242-1.667C21.5,7.416,20.1,5.866,18.22,5.866a8.346,8.346,0,0,0-2.436.49,2.218,2.218,0,0,1-1.32,0c-2.809-.883-3.709-.676-6.419,1.493A11.021,11.021,0,0,1,2.257,9.912C4.775,7.764,4.867,6.26,7.678,3.449Zm.136,5.9c3.081,1.572,11.519,1.575,14.612,0a11.785,11.785,0,0,0,3.44,1.353c-5.3,4.247-16.172,4.26-21.491-.005A11.465,11.465,0,0,0,7.813,9.352ZM8.9,8.6c2.3-1.828,2.835-1.932,5.232-1.176a3.3,3.3,0,0,0,1.991,0c2.4-.754,2.934-.649,5.232,1.176C18.466,9.674,11.786,9.676,8.9,8.6ZM1.748,11.068c.35-.018.765-.056,1.219-.112,5.644,5.412,18.666,5.416,24.314,0,.457.056.867.093,1.219.112-5.321,6.375-5.065,6.133-5.732,6.741-3.283-.045-7.682.56-10.138,2.54a11.674,11.674,0,0,1-1.641-.438.555.555,0,0,0-.346-.988c-3.3,0-3.361-3.762-3.361-3.921v-.007A.56.56,0,1,0,6.162,15,5.639,5.639,0,0,1,6,16.178ZM6.722,21.429a4.283,4.283,0,0,0-1.695-1.946,4.283,4.283,0,0,0,1.695-1.946,4.283,4.283,0,0,0,1.695,1.946A4.283,4.283,0,0,0,6.722,21.429ZM22.405,33.487c-4.769,0-10.082-1.61-10.082-3.921v-1.71a15.628,15.628,0,0,0,7.231,2.27.562.562,0,0,0,.1-1.12,13.628,13.628,0,0,1-7.332-2.521v-1.42a6.212,6.212,0,0,0,.868.677.552.552,0,0,0,.221.134c4.428,2.68,13.555,2.681,17.987,0a.552.552,0,0,0,.224-.134,6.212,6.212,0,0,0,.865-.677v4.5C32.488,31.876,27.174,33.487,22.405,33.487Z" transform="translate(0 0)"/><circle class="a" cx="0.592" cy="0.592" r="0.592" transform="translate(21.54 28.455)"/><path class="a" d="M6.56,42a.56.56,0,0,0-.56.56v1.12a.56.56,0,0,0,1.12,0V42.56A.56.56,0,0,0,6.56,42Z" transform="translate(-2.639 -18.036)"/><path class="a" d="M6,49.68a.56.56,0,0,0,1.12,0V48.56a.56.56,0,0,0-1.12,0Z" transform="translate(-2.639 -20.675)"/><path class="a" d="M8.56,47.12H9.68a.56.56,0,1,0,0-1.12H8.56a.56.56,0,1,0,0,1.12Z" transform="translate(-3.519 -19.795)"/><path class="a" d="M3.68,46H2.56a.56.56,0,1,0,0,1.12H3.68a.56.56,0,1,0,0-1.12Z" transform="translate(-0.88 -19.795)"/></g></svg>