<svg xmlns="http://www.w3.org/2000/svg" xmlns:xlink="http://www.w3.org/1999/xlink" width="33.994" height="33.994" viewBox="0 0 33.994 33.994"><defs><linearGradient id="a" x1="0.5" x2="0.5" y2="1" gradientUnits="objectBoundingBox"><stop offset="0" stop-color="#f5b4b8"/><stop offset="1" stop-color="#de00fc"/></linearGradient></defs><g transform="translate(0)"><path class="a" d="M32.646,20.607l-.352-.141V1.7a1.7,1.7,0,0,0-1.7-1.7H26.062a1.7,1.7,0,0,0-1.7,1.7V6.8H19.316A18.7,18.7,0,0,0,16.522,3.45C12.434-.637,11.2-.036,10.913.246l-1.6,1.6c-.283.283-.884,1.52,3.2,5.609,2.823,2.824,4.287,3.411,5.016,3.411a.8.8,0,0,0,.593-.206l1.6-1.6c.126-.126.314-.447.118-1.127h4.517v9.773l-12.029,3.5a5.016,5.016,0,0,0-.37-3.337L13.9,16.256A1.7,1.7,0,0,0,15.3,17H19.83a1.7,1.7,0,0,0,0-3.4H15.3a1.7,1.7,0,0,0-1.673,1.429c-.17.113.146-.143-2.2,1.816a19.791,19.791,0,0,0-5.032-5.127c.585-1.423-.027-2.991-1.733-4.375A2.816,2.816,0,0,0,0,9.462a2.874,2.874,0,0,0,.527,1.665c11.252,15.992,4.4,6.257,9.9,14.063a1.646,1.646,0,0,0,1.289.693l1.029,2.445H10.2a4.538,4.538,0,0,0-4.533,4.533A1.133,1.133,0,0,0,6.8,33.994H32.861a1.133,1.133,0,0,0,1.133-1.133,4.524,4.524,0,0,0-1.7-3.533V24.7a2.146,2.146,0,0,0,.352-4.088ZM10.312,2.845a20.78,20.78,0,0,1,6.811,6.814A20.732,20.732,0,0,1,10.312,2.845ZM18.082,9.1c-.922-2.117-5.095-6.289-7.211-7.211l.75-.75c.464.1,2.033,1.044,4.1,3.11s3.015,3.636,3.11,4.1ZM15.3,14.731H19.83a.567.567,0,0,1,0,1.133H15.3a.567.567,0,1,1,0-1.133Zm10.2,3.016V14.731h5.666v5.282ZM31.161,13.6H25.5V9.632h5.666ZM25.5,1.7a.567.567,0,0,1,.567-.567h4.533a.567.567,0,0,1,.567.567V8.5H25.5ZM1.453,10.475A1.662,1.662,0,0,1,2.776,7.809a1.87,1.87,0,0,1,1.171.413c.985.8,1.993,2.008,1.3,3.278L3.155,12.892Zm9.9,14.063L3.807,13.819l1.85-1.235c2.493,1.8,6.377,5.351,5.581,8.329a1.125,1.125,0,0,0,1.39,1.393L24.9,18.727l7.327,2.93a1.011,1.011,0,0,1-.754,1.876c-6.86-2.741-6.375-2.565-6.532-2.568-.091-.019.113-.063-13.027,3.771a.518.518,0,0,1-.565-.2Zm10.95,3.79-2.594-4.685,4.657-1.358v6.043Zm-9.457-2.682,5.748-1.677L21,28.329H13.974Zm20.018,7.215H6.8a3.4,3.4,0,0,1,3.4-3.4H29.462A3.4,3.4,0,0,1,32.861,32.861ZM25.5,28.329V22.367c6.317,2.525,5.4,2.162,5.666,2.253v4.042C30.069,28.218,29.6,28.329,25.5,28.329Z" transform="translate(0 0)"/><path class="a" d="M47.567,7.7a.567.567,0,0,0,.567-.567V6.567a.567.567,0,0,0-1.133,0v.567A.567.567,0,0,0,47.567,7.7Z" transform="translate(-20.371 -2.601)"/><path class="a" d="M51.567,7.7a.567.567,0,0,0,.567-.567V6.567a.567.567,0,0,0-1.133,0v.567A.567.567,0,0,0,51.567,7.7Z" transform="translate(-22.105 -2.601)"/><path class="a" d="M17.133,54h-.567a.567.567,0,1,0,0,1.133h.567a.567.567,0,1,0,0-1.133Z" transform="translate(-6.935 -23.405)"/><path class="a" d="M27.8,54H21.567a.567.567,0,0,0,0,1.133H27.8A.567.567,0,1,0,27.8,54Z" transform="translate(-9.102 -23.405)"/></g></svg>