<svg xmlns="http://www.w3.org/2000/svg" xmlns:xlink="http://www.w3.org/1999/xlink" width="34.003" height="34.018" viewBox="0 0 34.003 34.018"><defs><linearGradient id="a" x1="0.5" x2="0.5" y2="1" gradientUnits="objectBoundingBox"><stop offset="0" stop-color="#f5b4b8"/><stop offset="1" stop-color="#de00fc"/></linearGradient></defs><g transform="translate(-0.009)"><path class="a" d="M41.809,0H26.6C25.116,0,24,2.193,24,5.1s1.116,5.1,2.6,5.1h3.639c1.009,0,1.121,1.9,1.134,2.219a26.373,26.373,0,0,0-.553,2.812c-.025.206-.491,15.6-.47,14.81a3.86,3.86,0,1,0,7.718,0c0-.057-.449-14.64-.47-14.806s.057.227-.553-2.813c.012-.315.131-2.22,1.134-2.22h3.639c1.476,0,2.592-2.195,2.592-5.1S43.289,0,41.809,0ZM36.487,15.87l.334,10.769H31.583l.334-10.769Zm-4.939,11.9h5.309l.053,1.7H31.495ZM36,13.036l.34,1.7H32.06l.34-1.7ZM34.2,32.874a2.727,2.727,0,0,1-2.689-2.267h5.378A2.729,2.729,0,0,1,34.2,32.874ZM35.933,11.9H32.471a4.688,4.688,0,0,0-.483-1.7h4.429A4.688,4.688,0,0,0,35.933,11.9Zm5.876-2.834H26.6c-.6,0-1.462-1.546-1.462-3.968S26,1.134,26.6,1.134H41.809c.6,0,1.462,1.546,1.462,3.968S42.406,9.069,41.809,9.069Z" transform="translate(-10.393)"/><path class="a" d="M43.17,4h-13.6a.567.567,0,1,0,0,1.134h13.6A.567.567,0,1,0,43.17,4Z" transform="translate(-12.559 -1.733)"/><path class="a" d="M43.17,8h-13.6a.567.567,0,1,0,0,1.134h13.6A.567.567,0,1,0,43.17,8Z" transform="translate(-12.559 -3.466)"/><path class="a" d="M43.17,12h-13.6a.567.567,0,1,0,0,1.134h13.6a.567.567,0,1,0,0-1.134Z" transform="translate(-12.559 -5.198)"/><path class="a" d="M5.7,23.4A1.7,1.7,0,1,0,4,21.7,1.7,1.7,0,0,0,5.7,23.4Zm0-2.267a.567.567,0,1,1-.567.567A.567.567,0,0,1,5.7,21.134Z" transform="translate(-1.729 -8.664)"/><path class="a" d="M11.906,16H3.971A3.968,3.968,0,0,0,.438,21.763c.044.141-.044-.026.373.68A47.158,47.158,0,0,1,1.251,35.2,5.013,5.013,0,0,0,6.3,40.939c3.3,0,4.194.105,5.34-.382a5.1,5.1,0,0,0,2.994-5.343,47.163,47.163,0,0,1,.437-12.769c.417-.707.329-.541.373-.68A3.968,3.968,0,0,0,11.906,16Zm-.129,9.784A3.972,3.972,0,0,0,10.315,23.6a3.914,3.914,0,0,0,2.641.19ZM10.192,28.47a2.806,2.806,0,0,1-4.506,0l-.363-.616a2.834,2.834,0,1,1,5.233,0ZM2.922,23.79a3.911,3.911,0,0,0,2.641-.19A3.972,3.972,0,0,0,4.1,25.784ZM14.74,19.968a2.834,2.834,0,1,1-2.834-2.834A2.834,2.834,0,0,1,14.74,19.968ZM9.135,17.134a3.953,3.953,0,0,0,.4,6,3.939,3.939,0,0,0-3.183,0,3.954,3.954,0,0,0,.393-6Zm-5.164,0a2.834,2.834,0,1,1-2.834,2.834A2.834,2.834,0,0,1,3.971,17.134ZM13.45,34.7H2.428c.033-.378.067-.756.092-1.134H13.359C13.383,33.948,13.417,34.326,13.45,34.7Zm-2.267,4.812c-.907.385-1.653.289-4.891.289a4.09,4.09,0,0,1-1.6-.287,3.947,3.947,0,0,1-2.343-3.681H13.526a3.945,3.945,0,0,1-2.34,3.679ZM13.3,32.437H2.576a48.32,48.32,0,0,0-.26-7.444l2,3.384a3.968,3.968,0,0,0,7.248,0l2-3.384A48.231,48.231,0,0,0,13.3,32.437Z" transform="translate(0 -6.931)"/><path class="a" d="M18,21.7A1.7,1.7,0,1,0,19.7,20,1.7,1.7,0,0,0,18,21.7Zm2.267,0a.567.567,0,1,1-.567-.567A.567.567,0,0,1,20.267,21.7Z" transform="translate(-7.794 -8.664)"/><path class="a" d="M12.7,32a1.7,1.7,0,1,0,1.7,1.7A1.7,1.7,0,0,0,12.7,32Zm0,2.267a.567.567,0,1,1,.567-.567A.567.567,0,0,1,12.7,34.267Z" transform="translate(-4.762 -13.862)"/></g></svg>