<svg xmlns="http://www.w3.org/2000/svg" xmlns:xlink="http://www.w3.org/1999/xlink" width="34.113" height="34.113" viewBox="0 0 34.113 34.113"><defs><linearGradient id="a" x1="0.5" x2="0.5" y2="1" gradientUnits="objectBoundingBox"><stop offset="0" stop-color="#f5b4b8"/><stop offset="1" stop-color="#de00fc"/></linearGradient></defs><path class="a" d="M31.271,10.234V9.1a1.706,1.706,0,0,0-1.706-1.706H29V6.823a2.267,2.267,0,0,0-1.137-1.958V3.478l2.208,2.277a1.706,1.706,0,0,0,2.415-2.4L29.715.512A1.718,1.718,0,0,0,28.494,0H19.9a1.706,1.706,0,0,0,0,3.411h4.548V4.865a2.267,2.267,0,0,0-1.137,1.958v.569h-.569A1.706,1.706,0,0,0,21.037,9.1v1.137a2.846,2.846,0,0,0-2.843,2.843v4.548H14.012c.892-9.843.77-7.737.77-10.8a1.706,1.706,0,0,0-1.706-1.706H1.706A1.706,1.706,0,0,0,0,6.823V9.149C1.99,31.035,1.706,26.4,1.706,32.408a1.706,1.706,0,0,0,1.706,1.706H31.271a2.846,2.846,0,0,0,2.843-2.843V13.077A2.846,2.846,0,0,0,31.271,10.234ZM19.331,1.706a.569.569,0,0,1,.569-.569h8.595a.569.569,0,0,1,.407.171L31.673,4.15a.569.569,0,0,1-.4.967.561.561,0,0,1-.4-.16L28.443,2.445a.569.569,0,0,0-.408-.171H19.9a.569.569,0,0,1-.569-.569Zm6.254,1.706h1.137V4.548H25.585ZM24.448,6.823a1.137,1.137,0,0,1,1.137-1.137h1.137a1.137,1.137,0,0,1,1.137,1.137v.569H24.448ZM22.174,9.1a.569.569,0,0,1,.569-.569h6.823a.569.569,0,0,1,.569.569v1.137h-7.96Zm1.706,12.508V19.9a2.274,2.274,0,0,0-2.274-2.274v-3.98h9.1V30.7H25.585V23.311A1.706,1.706,0,0,0,23.879,21.605Zm-2.274-2.843A1.137,1.137,0,0,1,22.742,19.9v1.706H11.371V19.9a1.137,1.137,0,0,1,1.137-1.137ZM1.137,6.823a.569.569,0,0,1,.569-.569h.569V7.391a.569.569,0,1,0,1.137,0V6.254H4.548V7.391a.569.569,0,1,0,1.137,0V6.254H6.823V7.391a.569.569,0,1,0,1.137,0V6.254H9.1V7.391a.569.569,0,0,0,1.137,0V6.254h1.137V7.391a.569.569,0,1,0,1.137,0V6.254h.569a.569.569,0,0,1,.569.569V8.528H1.137ZM13.591,9.665l-.721,7.96h-.362A2.274,2.274,0,0,0,10.234,19.9v1.706a1.706,1.706,0,0,0-1.706,1.706v3.98H2.793L1.194,9.665ZM2.843,28.428H8.528v2.324c-.33.711-2.006.651-2.254.042a1.1,1.1,0,0,0-1.032-.66h-2.4Zm6.823-2.843h7.96a.569.569,0,0,1,.569.569v3.411a.569.569,0,0,1-.569.569H9.665ZM2.843,32.408V31.271h2.4a2.6,2.6,0,0,0,3.285.91,1.983,1.983,0,0,0,.1.8H3.411A.569.569,0,0,1,2.843,32.408Zm7.391.569a.569.569,0,0,1-.569-.569V31.271h7.96a1.706,1.706,0,0,0,1.706-1.706V26.154a1.706,1.706,0,0,0-1.706-1.706H9.665V23.311a.569.569,0,0,1,.569-.569H23.879a.569.569,0,0,1,.569.569v9.1a.569.569,0,0,1-.569.569Zm22.742-1.706a1.706,1.706,0,0,1-1.706,1.706H25.48a2.887,2.887,0,0,0,.1-1.137h5.686a.569.569,0,0,0,.569-.569V13.077a.569.569,0,0,0-.569-.569H21.037a.569.569,0,0,0-.569.569v4.548H19.331V13.077a1.706,1.706,0,0,1,1.706-1.706H31.271a1.706,1.706,0,0,1,1.706,1.706Z"/><path class="a" d="M5.848,35.506a.569.569,0,0,0,.569-.616L5.467,23.519A.561.561,0,0,0,4.852,23a.569.569,0,0,0-.519.613l.949,11.371A.569.569,0,0,0,5.848,35.506Z" transform="translate(-1.868 -9.921)"/><circle class="a" cx="0.5" cy="0.5" r="0.5" transform="translate(2.057 11.057)"/></svg>