<svg xmlns="http://www.w3.org/2000/svg" xmlns:xlink="http://www.w3.org/1999/xlink" width="33.984" height="33.993" viewBox="0 0 33.984 33.993"><defs><linearGradient id="a" x1="0.5" x2="0.5" y2="1" gradientUnits="objectBoundingBox"><stop offset="0" stop-color="#f5b4b8"/><stop offset="1" stop-color="#de00fc"/></linearGradient></defs><g transform="translate(-0.027 -0.012)"><path class="a" d="M31.955,4.979a.567.567,0,1,0-.8.8L33.669,8.3a1.115,1.115,0,0,0,.289,1.091c1,1,1.746,1.893,3.461,2.1a5.647,5.647,0,0,1,3.38,1.537L43.575,15.8a2.267,2.267,0,1,0,3.138-3.273L44,9.815a5.648,5.648,0,0,1-1.537-3.38,5.451,5.451,0,0,0-2.1-3.461,1.133,1.133,0,0,0-1.09-.288L36.764.171a.567.567,0,0,0-.8.8l2.4,2.4-.8.8-2.4-2.4a.567.567,0,0,0-.8.8l2.4,2.4-.8.8-2.4-2.4a.567.567,0,0,0-.8.8l2.4,2.4-.8.8Zm9.386,1.592A6.768,6.768,0,0,0,43.2,10.617l2.709,2.709a1.206,1.206,0,0,1,.125,1.609,1.169,1.169,0,0,1-1.66.062L41.6,12.22a6.767,6.767,0,0,0-4.046-1.861c-1.336-.159-1.927-.907-2.794-1.773l4.81-4.807c.9.895,1.613,1.459,1.773,2.793Z" transform="translate(-13.413 0)"/><path class="a" d="M25.631,24.993c-.685-1.988.2-4.668.436-9.074a.568.568,0,1,0-1.133-.062c-.233,4.3-1.1,6.933-.465,9.217-2.332.214-5.189.8-5.189,2.158a1.327,1.327,0,0,0,.771,1.077l.277,1.385c-.674.095-1.409.17-2.194.227V26a10.637,10.637,0,0,0,2.511-4.489c.907-.24,2.6-1.071,2.6-3.936,0-1.325-.306-2.124-.936-2.443a1.367,1.367,0,0,0-1.005-.073c0-.361-.012-.719-.038-1.057a.567.567,0,0,0-.163-.356c-2.186-2.2-3.128-2.281-7.208-2.281A4.006,4.006,0,0,1,9.8,8.89a.567.567,0,0,0-.873-.24C7.307,9.9,6.511,11.993,6.489,15.061a1.369,1.369,0,0,0-1,.072c-.633.318-.939,1.117-.939,2.443,0,2.856,1.684,3.691,2.592,3.933a10.522,10.522,0,0,0,2.529,4.516v3.9c-5.8-.422-7.278-1.7-8.053-2.575,3.74-1.788.661-9,1.207-14.7.557-5.782,5.408-6.048,6.884-6a.611.611,0,0,0,.353-.067A13.859,13.859,0,0,1,17.74,5.209a.567.567,0,1,0,.122-1.127A15.136,15.136,0,0,0,9.652,5.519c-3.509-.09-7.447,1.691-7.961,7.022C1.121,18.491,4.21,25.672.564,26.512a.572.572,0,0,0-.279,1.049c.924.85,1.609,2.956,9.443,3.5a1.707,1.707,0,0,0,1.648,1.272h5.066a1.672,1.672,0,0,0,1.63-1.273c.89-.062,1.719-.147,2.477-.256.516,2.577.43,1.87.43,3.225a1.7,1.7,0,0,0,1.7,1.7h7.933a1.7,1.7,0,0,0,1.7-1.7c0-1.437-.151-.322.929-5.723a1.327,1.327,0,0,0,.771-1.077c0-2.046-6.3-2.338-8.381-2.239ZM21.8,16.145c.013.006.314.17.314,1.431a2.74,2.74,0,0,1-1.161,2.6,23.8,23.8,0,0,0,.347-3.888c.261-.149.437-.175.5-.143ZM5.678,17.576c0-1.259.3-1.425.314-1.431.062-.031.239-.006.5.143a24.136,24.136,0,0,0,.34,3.884,2.742,2.742,0,0,1-1.153-2.6Zm3.156,5.248C7.819,20.656,7.615,18.3,7.615,15.2c0-2.388.486-4.092,1.484-5.181A5.213,5.213,0,0,0,13.9,12.5c3.921,0,4.506.059,6.254,1.8.018.294.026.6.026.907,0,3.089-.206,5.44-1.234,7.619-1.19,2.534-2.887,3.818-5.047,3.818-2.177,0-3.879-1.282-5.061-3.815ZM16.442,31.2H11.376a.567.567,0,0,1-.57-.639c0-.029-.006.405-.006-3.646A5.972,5.972,0,0,0,17,26.9v3.729a.558.558,0,0,1-.557.57Zm10.2-5.1c3.451,0,5.8.716,6.2,1.133-.4.417-2.749,1.133-6.2,1.133s-5.8-.716-6.2-1.133C20.847,26.815,23.194,26.1,26.645,26.1Zm4.533,7.933a.567.567,0,0,1-.567.567H22.678a.567.567,0,0,1-.567-.567v-.567h5.667a.567.567,0,1,0,0-1.133H22.01c-.368-1.842.586,2.93-.7-3.495a22.14,22.14,0,0,0,10.669,0c-.955,4.776-.8,3.608-.8,5.195Z" transform="translate(0 -1.727)"/></g></svg>